#!OML:ASF H:\MichaelJackson\Top Level 1\Subject 1\Session 1\male.ASF
:FULLY-SPECIFIED
:DEGREES
312
root 20.6278 16.714 10.7879 -354.959 -37.289 -3.22217
lowerback 3.52611 2.1293 -3.73594
upperback 0.947185 2.68456 -0.76994
thorax -1.1368 1.3437 1.17874
lowerneck -9.38396 -4.70686 1.94185
upperneck 21.5616 -6.8975 -0.554919
head 8.1296 -3.21917 -1.17895
rclavicle -4.97956e-014 4.77083e-015
rhumerus -52.6114 -5.74025 -90.3763
rradius 62.0142
rwrist 16.4987
rhand -40.1228 -23.4673
rfingers 7.12502
rthumb -13.0861 -53.0368
lclavicle -4.97956e-014 4.77083e-015
lhumerus -45.5998 -12.2763 94.1458
lradius 59.1875
lwrist 20.1112
lhand -8.02502 16.3894
lfingers 7.12502
lthumb 17.8848 45.5871
rfemur -58.2629 14.1881 10.8052
rtibia 51.1083
rfoot 23.2598 20.7449
rtoes 2.77885
lfemur -13.0804 -20.143 -21.88
ltibia 38.198
lfoot -22.4881 -29.8897
ltoes 35.0161
313
root 20.5075 16.7247 10.7924 -354.986 -34.3724 -3.37333
lowerback 3.42991 1.97843 -3.82986
upperback 0.877874 2.48683 -0.609308
thorax -1.15562 1.24722 1.40751
lowerneck -9.41076 -5.10089 1.61983
upperneck 21.7713 -7.44552 -0.294179
head 8.22205 -3.4722 -1.09829
rclavicle 5.35725e-014 3.18055e-015
rhumerus -52.645 -5.37347 -90.5461
rradius 61.7215
rwrist 15.8106
rhand -40.039 -22.9458
rfingers 7.12502
rthumb -13.0054 -52.5204
lclavicle 5.35725e-014 3.18055e-015
lhumerus -45.4167 -12.3646 94.4988
lradius 59.1278
lwrist 20.0995
lhand -8.06547 16.3216
lfingers 7.12502
lthumb 17.8458 45.5228
rfemur -57.8597 14.088 10.499
rtibia 51.4347
rfoot 24.0232 20.6181
rtoes 4.24903
lfemur -12.9452 -18.6992 -21.3071
ltibia 38.4503
lfoot -22.3887 -30.9173
ltoes 35.429
314
root 20.3871 16.7334 10.8007 -355.033 -31.4179 -3.52351
lowerback 3.33903 1.81488 -3.89804
upperback 0.810168 2.27272 -0.455164
thorax -1.17176 1.14247 1.61576
lowerneck -9.43655 -5.49641 1.3044
upperneck 22.0013 -7.99747 -0.0407303
head 8.32437 -3.72637 -1.02312
rclavicle 6.77856e-014 7.95139e-015
rhumerus -52.688 -4.99022 -90.6941
rradius 61.4754
rwrist 14.9009
rhand -39.7759 -22.3612
rfingers 7.12502
rthumb -12.7518 -51.9518
lclavicle 6.77856e-014 7.95139e-015
lhumerus -45.2417 -12.5031 94.8637
lradius 59.089
lwrist 20.1274
lhand -8.19038 16.2598
lfingers 7.12502
lthumb 17.7256 45.4718
rfemur -57.4005 13.7913 10.2705
rtibia 51.8798
rfoot 24.633 20.1061
rtoes 4.42984
lfemur -12.7298 -17.2592 -20.7929
ltibia 38.6969
lfoot -22.7757 -30.9341
ltoes 34.8191
315
root 20.2669 16.7404 10.8137 -355.096 -28.4323 -3.67167
lowerback 3.23105 1.63983 -3.94091
upperback 0.744285 2.04486 -0.306094
thorax -1.17284 1.03052 1.80562
lowerneck -9.45199 -5.89327 0.995784
upperneck 22.2483 -8.55046 0.194178
head 8.4332 -3.98149 -0.956535
rclavicle 3.61788e-014 0
rhumerus -52.7521 -4.60358 -90.804
rradius 61.2802
rwrist 13.878
rhand -39.3517 -21.738
rfingers 7.12502
rthumb -12.3428 -51.3536
lclavicle 3.61788e-014 0
lhumerus -45.0707 -12.704 95.2509
lradius 59.0569
lwrist 20.1911
lhand -8.38642 16.211
lfingers 7.12502
lthumb 17.537 45.44
rfemur -56.8825 13.3231 10.0916
rtibia 52.4189
rfoot 25.0695 19.3384
rtoes 3.47591
lfemur -12.4094 -15.9029 -20.3315
ltibia 38.8839
lfoot -23.6164 -29.9425
ltoes 33.1592
316
root 20.1469 16.7468 10.8316 -355.169 -25.419 -3.81248
lowerback 3.0937 1.44871 -3.97172
upperback 0.679923 1.79727 -0.157431
thorax -1.15267 0.908259 1.98958
lowerneck -9.46822 -6.28672 0.686417
upperneck 22.5209 -9.09542 0.403039
head 8.55327 -4.23435 -0.899596
rclavicle -8.15017e-015 0
rhumerus -52.8332 -4.20831 -90.866
rradius 61.1285
rwrist 12.8754
rhand -38.7566 -21.1961
rfingers 7.12502
rthumb -11.769 -50.8454
lclavicle -8.15017e-015 0
lhumerus -44.896 -12.9447 95.6616
lradius 59.0181
lwrist 20.2717
lhand -8.61673 16.1444
lfingers 7.12502
lthumb 17.3153 45.393
rfemur -56.3046 12.7217 9.9226
rtibia 53.0186
rfoot 25.3518 18.4691
rtoes 1.79988
lfemur -11.9849 -14.6636 -19.9065
ltibia 38.9627
lfoot -24.7084 -28.1383
ltoes 30.6484
317
root 20.0274 16.7537 10.8544 -355.253 -22.3592 -3.92733
lowerback 2.92158 1.23646 -4.01296
upperback 0.609392 1.52243 -0.0145621
thorax -1.11599 0.772145 2.17453
lowerneck -9.46312 -6.67723 0.384987
upperneck 22.8099 -9.6339 0.585627
head 8.67684 -4.48548 -0.852843
rclavicle -5.06901e-015 -3.18055e-015
rhumerus -52.9431 -3.81893 -90.8755
rradius 60.9925
rwrist 12.0666
rhand -38.063 -20.7853
rfingers 7.12502
rthumb -11.1 -50.4718
lclavicle -5.06901e-015 -3.18055e-015
lhumerus -44.7256 -13.2414 96.1
lradius 58.9533
lwrist 20.3422
lhand -8.86826 16.0447
lfingers 7.12502
lthumb 17.0732 45.3145
rfemur -55.6607 12.0053 9.71645
rtibia 53.645
rfoot 25.4951 17.6985
rtoes -0.228455
lfemur -11.4753 -13.5373 -19.5056
ltibia 38.9
lfoot -25.8352 -25.8399
ltoes 27.5538
318
root 19.9086 16.7618 10.8821 -355.339 -19.2657 -4.016
lowerback 2.7123 1.0037 -4.07552
upperback 0.532847 1.22099 0.12454
thorax -1.06126 0.622473 2.36807
lowerneck -9.45746 -7.06165 0.0852451
upperneck 23.1249 -10.1616 0.744142
head 8.81115 -4.73265 -0.815234
rclavicle -1.00386e-014 1.90833e-014
rhumerus -53.0714 -3.42935 -90.8316
rradius 60.8428
rwrist 11.5853
rhand -37.3455 -20.5475
rfingers 7.12502
rthumb -10.4079 -50.2699
lclavicle -1.00386e-014 1.90833e-014
lhumerus -44.5544 -13.5593 96.5548
lradius 58.852
lwrist 20.3591
lhand -9.0895 15.8807
lfingers 7.12502
lthumb 16.8603 45.1688
rfemur -54.9524 11.2253 9.44528
rtibia 54.2651
rfoot 25.5931 17.1713
rtoes -2.07315
lfemur -10.9159 -12.4932 -19.1047
ltibia 38.6908
lfoot -26.8646 -23.3194
ltoes 24.1179
319
root 19.7908 16.7717 10.9146 -355.421 -16.1297 -4.07923
lowerback 2.46755 0.745328 -4.16392
upperback 0.451974 0.886163 0.260479
thorax -0.986704 0.455752 2.57291
lowerneck -9.45174 -7.43783 -0.22715
upperneck 23.4563 -10.6778 0.901665
head 8.95517 -4.97453 -0.776716
rclavicle -4.47266e-015 -5.56597e-015
rhumerus -53.2147 -3.02962 -90.7434
rradius 60.6639
rwrist 11.4871
rhand -36.6741 -20.4544
rfingers 7.12502
rthumb -9.76027 -50.2082
lclavicle -4.47266e-015 -5.56597e-015
lhumerus -44.3626 -13.8777 97.0148
lradius 58.698
lwrist 20.2901
lhand -9.23466 15.6742
lfingers 7.12502
lthumb 16.7205 44.9741
rfemur -54.1768 10.4069 9.09302
rtibia 54.8534
rfoot 25.7279 16.9671
rtoes -3.36543
lfemur -10.3604 -11.5155 -18.6777
ltibia 38.3571
lfoot -27.6552 -20.9281
ltoes 20.8568
320
root 19.674 16.783 10.9512 -355.5 -12.9335 -4.11564
lowerback 2.20074 0.458498 -4.28443
upperback 0.364523 0.513474 0.390191
thorax -0.901016 0.269928 2.78857
lowerneck -9.43208 -7.80839 -0.550726
upperneck 23.7899 -11.1887 1.07072
head 9.10236 -5.21313 -0.733049
rclavicle 4.92986e-014 1.82882e-014
rhumerus -53.3725 -2.62996 -90.6207
rradius 60.4412
rwrist 11.7409
rhand -36.1221 -20.4814
rfingers 7.12502
rthumb -9.22764 -50.2595
lclavicle 4.92986e-014 1.82882e-014
lhumerus -44.154 -14.1932 97.468
lradius 58.4871
lwrist 20.1029
lhand -9.25628 15.4347
lfingers 7.12502
lthumb 16.6997 44.7363
rfemur -53.322 9.56888 8.64909
rtibia 55.394
rfoot 25.9615 17.0807
rtoes -3.9579
lfemur -9.86374 -10.495 -18.2009
ltibia 37.9488
lfoot -28.2591 -18.92
ltoes 17.9025
321
root 19.5584 16.7949 10.9915 -355.573 -9.68369 -4.13065
lowerback 1.93038 0.149672 -4.42744
upperback 0.268816 0.111073 0.508068
thorax -0.81599 0.0692986 3.00281
lowerneck -9.38734 -8.17938 -0.885245
upperneck 24.1041 -11.7054 1.26581
head 9.24442 -5.45271 -0.67946
rclavicle 1.60519e-014 -2.70347e-014
rhumerus -53.5531 -2.2517 -90.4751
rradius 60.1843
rwrist 12.2538
rhand -35.7144 -20.5614
rfingers 7.12502
rthumb -8.83417 -50.3565
lclavicle 1.60519e-014 -2.70347e-014
lhumerus -43.9272 -14.5447 97.9225
lradius 58.2204
lwrist 19.8937
lhand -9.24205 15.1524
lfingers 7.12502
lthumb 16.7134 44.453
rfemur -52.3845 8.73739 8.11901
rtibia 55.8797
rfoot 26.3325 17.4513
rtoes -3.89755
lfemur -9.46763 -9.44402 -17.6739
ltibia 37.5281
lfoot -28.7049 -17.342
ltoes 15.3315
322
root 19.4442 16.8072 11.0347 -355.642 -6.38706 -4.13798
lowerback 1.66488 -0.1764 -4.58175
upperback 0.169132 -0.314567 0.617917
thorax -0.731977 -0.142978 3.21272
lowerneck -9.30539 -8.55342 -1.23564
upperneck 24.3798 -12.2314 1.49394
head 9.37358 -5.69533 -0.611989
rclavicle 9.19379e-015 -7.15625e-015
rhumerus -53.7563 -1.90181 -90.3126
rradius 59.9015
rwrist 12.8998
rhand -35.4783 -20.6411
rfingers 7.12502
rthumb -8.60633 -50.4457
lclavicle 9.19379e-015 -7.15625e-015
lhumerus -43.6784 -14.9306 98.3753
lradius 57.908
lwrist 19.6637
lhand -9.18987 14.8921
lfingers 7.12502
lthumb 16.7637 44.1884
rfemur -51.3548 7.93081 7.52624
rtibia 56.3133
rfoot 26.7949 17.9629
rtoes -3.47403
lfemur -9.2006 -8.43501 -17.1015
ltibia 37.1604
lfoot -28.989 -16.1162
ltoes 13.1393
323
root 19.3314 16.8194 11.0804 -355.713 -3.05664 -4.15097
lowerback 1.41159 -0.512662 -4.7318
upperback 0.0733493 -0.753869 0.722137
thorax -0.6457 -0.362373 3.41156
lowerneck -9.18947 -8.9332 -1.60148
upperneck 24.6032 -12.7698 1.75452
head 9.48582 -5.94282 -0.530873
rclavicle 1.78409e-014 -1.74931e-014
rhumerus -53.9795 -1.58698 -90.1412
rradius 59.6116
rwrist 13.5214
rhand -35.3983 -20.708
rfingers 7.12502
rthumb -8.52921 -50.5158
lclavicle 1.78409e-014 -1.74931e-014
lhumerus -43.3936 -15.3596 98.8231
lradius 57.5536
lwrist 19.4305
lhand -9.08579 14.701
lfingers 7.12502
lthumb 16.8639 43.9888
rfemur -50.2212 7.16895 6.89887
rtibia 56.7081
rfoot 27.2691 18.4825
rtoes -2.88101
lfemur -9.07919 -7.43178 -16.4837
ltibia 36.8998
lfoot -29.1643 -15.1915
ltoes 11.1455
324
root 19.22 16.8315 11.1283 -355.799 0.281106 -4.1886
lowerback 1.17659 -0.849853 -4.86198
upperback -0.0114327 -1.19442 0.829117
thorax -0.554712 -0.582927 3.59899
lowerneck -9.03606 -9.31789 -1.98398
upperneck 24.763 -13.3163 2.03915
head 9.57615 -6.19476 -0.437605
rclavicle 1.49089e-015 -2.06736e-014
rhumerus -54.2264 -1.30242 -89.9671
rradius 59.3372
rwrist 14.0019
rhand -35.4227 -20.7826
rfingers 7.12502
rthumb -8.55272 -50.5894
lclavicle 1.49089e-015 -2.06736e-014
lhumerus -43.0754 -15.8378 99.2755
lradius 57.1697
lwrist 19.2508
lhand -8.97438 14.5801
lfingers 7.12502
lthumb 16.9711 43.8587
rfemur -48.9759 6.4743 6.27835
rtibia 57.0852
rfoot 27.6161 18.9265
rtoes -2.48249
lfemur -9.10111 -6.4146 -15.8231
ltibia 36.7856
lfoot -29.2535 -14.4676
ltoes 9.22875
